<?xml version="1.0" encoding="UTF-8"?>
<svg style="opacity:0.7" id="Layer_1" xmlns="http://www.w3.org/2000/svg" xmlns:xlink="http://www.w3.org/1999/xlink" version="1.1" viewBox="0 0 89.4 39.9">
  <!-- Generator: Adobe Illustrator 29.6.0, SVG Export Plug-In . SVG Version: 2.1.1 Build 207)  -->
  <defs>
    <style>
      .st0 {
        fill: none;
      }

      .st1 {
        fill: #231f20;
      }

      .st2 {
        clip-path: url(#clippath-1);
      }

      .st3 {
        clip-path: url(#clippath);
      }
    </style>
    <clipPath id="clippath">
      <rect class="st0" x=".3" y="0" width="88.9" height="39.9"/>
    </clipPath>
    <clipPath id="clippath-1">
      <rect class="st0" x=".3" y="0" width="88.9" height="39.9"/>
    </clipPath>
  </defs>
  <g class="st3">
    <path class="st1" d="M15.9,38.6c-1.5,0-3.7-.2-5.1-1.9-1.2-1.4-1.4-4.4-1.4-6.9v-8.9c0-1.3.5-1.8,2.1-2,0-.3,0-.6,0-.8-1.9,0-2.1-.7-2.1-2.2V3.7c0-1,.2-1.7,1.2-2,.6-.3,1.5-.4,2.9-.4,2.2,0,4.6.5,6.3,1.9.7-.5,1.5-1,2.3-1.5C19.3.6,15.9.5,13.1.5,7.9.5,3.8.6.3.9c0,0,0,.1,0,.2,0,.1,0,.2,0,.3l1.7.2c3.3.4,3.4,2.1,3.4,6.3v22.8c0,6.3-.1,7.5-3.7,8h-.8c0,.3,0,.5,0,.7.6,0,1.3,0,1.9,0,1.5,0,3-.1,4.8-.1s2.9,0,4.3.1c1.1,0,2.2,0,2.9,0,2.9,0,5.3-.3,7.4-1-.5-.2-.9-.5-1.4-.8-1.4.6-3.1.9-5,.9h0Z"/>
    <path class="st1" d="M26.6,36.3c2.4-1.9,3.6-4.6,3.6-8,0-6.4-5-9-7.6-9.5-.5,0-1.5-.3-1.5-1.4v-.3h.3c4.1-2,5.8-4.4,5.8-7.9s-.9-4.3-2.1-5.5c-1.1.6-2.1,1.5-3,2.5.5,1.1.7,2.3.7,3.8,0,4.3-1.9,6.3-4.6,7.3,0,.4,0,.8,0,1.2s0,.7,0,1.1c6.7,1.9,7.5,7.5,7.5,10.2s-.5,3.7-1.3,5.1c.7.6,1.4,1.1,2.2,1.5h0Z"/>
    <path class="st1" d="M33.6,39c-2.6,0-4.9-.6-6.9-1.6-.3-.2-.6-.3-.9-.5-.7-.4-1.3-.9-1.9-1.4-.3-.2-.5-.4-.7-.7-3.6-3.6-5.5-9-5.9-14.5,0-.3,0-.7,0-1,0-.3,0-.6,0-.8s0-.6,0-.9c0-.4,0-.7,0-1.1.3-4.6,1.7-8.1,3.6-10.5.2-.3.5-.5.7-.8.8-.9,1.7-1.6,2.6-2.2.3-.2.6-.4.9-.5,2.1-1.1,4.4-1.6,6.6-1.6,3.3,0,6,.9,8.1,2.3.7-.4,1.3-.9,2-1.2C39.5.7,36.4,0,32.9,0s-6,.6-8.6,1.7c-.4.2-.7.3-1.1.5-.9.5-1.8,1-2.6,1.6-.3.2-.6.4-.8.6-3.8,3.1-6.4,7.5-7.2,12.7,0,.3-.1.7-.1,1,0,.3,0,.5,0,.8,0,.3,0,.7,0,1,0,.1,0,.3,0,.4,0,6.2,2.9,12.5,8.6,16.2.3.2.7.4,1,.6.5.3,1.1.6,1.7.8.4.2.8.4,1.3.5,2.4.9,5,1.3,8,1.3s6-.7,8.5-1.8c-.4-.2-.8-.5-1.2-.7-2,1.1-4.3,1.7-6.6,1.7h0Z"/>
  </g>
  <path class="st1" d="M45.6,35.4c4.5-3.6,7.2-9.2,7.2-15.7s-2.4-11.9-7.3-15.8c-.9.5-1.7,1.2-2.5,1.9,3.5,4.1,4.9,10.2,4.9,15.7s-1.6,9.8-4,12.6c.5.5,1,.9,1.6,1.3h0Z"/>
  <path class="st1" d="M50.3,38.7c-1.7-.5-3.2-1.1-4.6-2-.2-.1-.3-.2-.5-.3-.1,0-.3-.2-.4-.3-.5-.4-1-.7-1.4-1.2-.1-.1-.2-.2-.3-.3-.1-.1-.2-.2-.3-.3-3.5-3.5-5.5-8.7-5.5-15s1.7-10.2,4.6-13.4c.1-.1.2-.3.4-.4.1-.1.2-.2.4-.4.7-.7,1.4-1.3,2.2-1.8.2-.1.3-.2.5-.3.2,0,.3-.2.5-.3,1.2-.7,2.6-1.2,4-1.6,0-.1,0-.3,0-.5,0,0,0-.3,0-.5-1.9.4-3.7.9-5.4,1.6-.2,0-.4.2-.5.3-.2,0-.4.2-.6.3-.8.4-1.5.8-2.3,1.3-.1,0-.3.2-.4.3-.1.1-.3.2-.4.3-.2.1-.3.2-.5.3-4.7,3.6-7.4,9.3-7.4,15.5s2.9,12.3,8.1,16c0,0,.1,0,.2.1,0,0,.2.1.3.2.1,0,.3.2.5.3.4.3.9.5,1.3.8.2,0,.3.2.5.3.2,0,.4.2.6.3,2,.9,4.3,1.5,6.8,1.9,0-.1,0-.2-.1-.4,0-.2,0-.6,0-.8h0Z"/>
  <path class="st1" d="M62.4,2.4c2.5,1.5,4.2,3.9,4.9,7.1.2,0,.5,0,.6,0-.4-3.1-.7-6.4-.8-8.1-.4,0-.7-.1-1.2-.2h-.1s0,0-.1,0c0,.4-.2.6-.4.8h-.1c0,0-1.3.2-1.3.2-.6,0-1.1.1-1.5.3h0Z"/>
  <g class="st2">
    <path class="st1" d="M68.4,30.6c-.9,2.1-2.6,5.1-5.8,6.9.3,0,.8.1,1.2.2l1.7.2h.1c.1.2.2.3.3.4.1,0,.3,0,.4-.1.8-1.2,2.2-4.7,2.6-7.6-.1,0-.5-.1-.6,0h0Z"/>
    <path class="st1" d="M89.1,38.9l-1.4-.2c-2-.2-3.5-1-5.1-2.6-4-4.2-7.9-8.7-12.4-13.9l-2.6-3c-.8-1-1.3-1.6-1.3-2.2s.6-1.3,1.5-2.2l5.4-5.1c3.6-3.4,6.8-6.1,8.5-7,1.7-1,4-1.6,5.5-1.7,0,0,0-.2,0-.3,0-.1,0-.2,0-.2-1.7.1-3.7.2-5.7.2s-4.4,0-6.4-.2c0,0,0,.1,0,.2,0,.1,0,.2,0,.3l1.4.3c.5.1,1.4.3,1.4,1.1s-.2.8-.5,1.3c-.6.9-3.6,4-4.7,5.1l-6.5,6.4c-.6.7-2.3,2.2-3.1,2.9-.5.4-1.3.8-2,.8-1.3,0-1.3-1.9-1.3-2.8v-6.9c0-3.5,0-5.5.8-6.6.2-.3.4-.6.8-.8.6-.4,1.4-.6,2.5-.7h.9c0-.1,0-.2,0-.3,0-.1,0-.3,0-.4-.5,0-.9,0-1.3,0-2,0-3.7.1-5.4.1s-.9,0-1.3,0c-1,0-2,0-3,0-.9,0-1.9,0-3.1-.1,0,.1,0,.3,0,.5,0,0,0,0,0,0h1.2c.9.2,1.6.3,2.2.6,1.9.8,1.9,2.9,1.9,7.6v21.6c0,5,0,6.7-1.9,7.5-.5.2-1.1.4-1.8.5h-1c0,.1,0,.2,0,.2,0,.2,0,.4,0,.5,1.2,0,2.2,0,3.2-.1.3,0,.7,0,1,0,.6,0,1.2,0,1.7,0,.3,0,.5,0,.8,0,1.6,0,3.1,0,4.7,0,.8,0,1.6,0,2.5,0,0-.1,0-.4,0-.5h-.6c0,0-.7-.2-.7-.2-1-.1-1.7-.3-2.3-.6-.3-.2-.6-.4-.8-.7-.8-1.1-.8-3.1-.8-6.7v-7.7c0-1.8,0-3.4,1.5-3.4s2.6,1.1,5.5,4.4l5.5,6.2c.8.9,1.6,1.7,2.2,2.5,1.1,1.3,2.1,2.3,2.8,3.2l.2.2c.4.5.8,1,.8,1.5,0,.8-1.2,1-1.9,1.1l-1.1.2c0,.2,0,.4,0,.5,2.4-.1,4.6-.2,7.2-.2s5,0,6.5.2c0,0,0-.2,0-.3,0,0,0-.2,0-.2h0Z"/>
  </g>
</svg>